<svg viewBox="0 0 100 100" xmlns="http://www.w3.org/2000/svg">
  <!-- 灯笼主体 -->
  <path 
    d="M40,20 Q40,15 50,15 Q60,15 60,20 L60,70 Q60,75 50,75 Q40,75 40,70 Z" 
    fill="#e53e3e"
    stroke="#742a2a"
    stroke-width="2"
  />
  
  <!-- 灯笼装饰 -->
  <path 
    d="M42,25 L58,25 M42,35 L58,35 M42,45 L58,45 M42,55 L58,55 M42,65 L58,65" 
    stroke="#742a2a"
    stroke-width="2"
  />
  
  <!-- 灯笼顶部 -->
  <path 
    d="M45,15 L55,15 L55,10 L45,10 Z" 
    fill="#742a2a"
  />
  
  <!-- 灯笼底部流苏 -->
  <path 
    d="M45,75 L45,85 M50,75 L50,88 M55,75 L55,85" 
    stroke="#742a2a"
    stroke-width="2"
    stroke-linecap="round"
  />
  
  <!-- 灯笼发光效果 -->
  <circle 
    cx="50" 
    cy="45" 
    r="25" 
    fill="url(#glow)" 
    opacity="0.3"
  />
  
  <defs>
    <radialGradient id="glow">
      <stop offset="0%" stop-color="#ffd700"/>
      <stop offset="100%" stop-color="#e53e3e" stop-opacity="0"/>
    </radialGradient>
  </defs>
</svg> 
